<svg version="1.1" xmlns="http://www.w3.org/2000/svg" xmlns:xlink="http://www.w3.org/1999/xlink" width="951.04078" height="759.03775" viewBox="444.17926,45.14151,951.04078,759.03775"><defs><linearGradient x1="843.16974" y1="437.79248" x2="844.43747" y2="429.17576" gradientUnits="userSpaceOnUse" id="color-1"><stop offset="0" stop-color="#cfcfcf"/><stop offset="1" stop-color="#000000"/></linearGradient></defs><g id="document" fill="#ffffff" fill-rule="nonzero" stroke="#000000" stroke-width="0" stroke-linecap="butt" stroke-linejoin="miter" stroke-miterlimit="10" stroke-dasharray="" stroke-dashoffset="0" font-family="none" font-weight="none" font-size="none" text-anchor="none" style="mix-blend-mode: normal"><rect x="520" y="39.64286" transform="scale(1,1.4)" width="700" height="500" id="Shape 1 1" vector-effect="non-scaling-stroke"/></g><g fill="none" fill-rule="nonzero" stroke="none" stroke-width="none" stroke-linecap="round" stroke-linejoin="round" stroke-miterlimit="10" stroke-dasharray="" stroke-dashoffset="0" font-family="none" font-weight="none" font-size="none" text-anchor="none" style="mix-blend-mode: normal"><g><g id="stage"><g id="layer1 1"><path d="" id="Path 1" fill="none" stroke="#000000" stroke-width="1"/><path d="M480.90567,268.43396l418.41507,-222.79245" id="Path 1" fill-opacity="0" fill="#000000" stroke="#000000" stroke-width="1"/><path d="M482.71698,104.50943l821.43402,329.66037" id="Path 1" fill-opacity="0" fill="#000000" stroke="#000000" stroke-width="1"/><path d="M642.11322,51.07547l-178.4151,287.09436" id="Path 1" fill-opacity="0" fill="#000000" stroke="#000000" stroke-width="1"/><path d="M581.43396,51.07547l655.69812,720.90567" id="Path 1" fill-opacity="0" fill="#000000" stroke="#000000" stroke-width="1"/><path d="M483.62265,349.94339l830.49063,-107.77356" id="Path 1" fill-opacity="0" fill="#000000" stroke="#000000" stroke-width="1"/><path d="M1029.73584,51.07547l225.50952,649.35849" id="Path 1" fill-opacity="0" fill="#000000" stroke="#000000" stroke-width="1"/><path d="M461.88681,454.09436l929.20755,53.43393" id="Path 1" fill-opacity="0" fill="#000000" stroke="#000000" stroke-width="1"/><path d="M464.60379,367.15094l619.47153,436.52832" id="Path 1" fill-opacity="0" fill="#000000" stroke="#000000" stroke-width="1"/><path d="M444.67926,690.47168l897.50946,-414.79242" id="Path 1" fill-opacity="0" fill="#000000" stroke="#000000" stroke-width="1"/><path d="M465.50943,523.8302l265.54542,265.54542" id="Path 1" fill-opacity="0" fill="#000000" stroke="#000000" stroke-width="1"/><path d="M968.15094,49.26416l-236.37732,739.01886" id="Path 1" fill-opacity="0" fill="#000000" stroke="#000000" stroke-width="1"/><path d="M640.73915,183.32782" id="Path 1" fill="none" stroke="#000000" stroke-width="1"/><path d="M482.71698,104.50943c218.71701,77.88676 372.73589,139.69808 821.43402,329.66037c-64.69813,-16.07545 -218.71701,-77.88676 -821.43402,-329.66037" id="Path 1" fill="#bfb718" stroke="none" stroke-width="0"/><path d="M483.62265,349.94339c446.9435,-52.98114 602.66049,-73.18868 830.49063,-107.77356c-291.2265,32.7736 -446.9435,52.98114 -830.49063,107.77356" id="Path 1" fill="#cfa3db" stroke="none" stroke-width="0"/><path d="M1029.73584,51.07547c50.26428,110.94344 92.54732,232.69815 225.50952,649.35849c-7.98125,10.81128 -50.26428,-110.94344 -225.50952,-649.35849" id="Path 1" fill="#e28b8b" stroke="none" stroke-width="0"/><path d="M444.67926,690.47168c447.84909,-204.67923 616.13211,-282.45281 897.50946,-414.79242c-279.56607,126.90565 -447.84909,204.67923 -897.50946,414.79242" id="Path 1" fill="#000000" stroke="none" stroke-width="0"/><path d="M581.43396,51.07547c328.75482,358.64159 451.69822,493.8114 655.69812,720.90567c-205.81142,-223.47177 -328.75482,-358.64159 -655.69812,-720.90567" id="Path 1" fill="#000000" stroke="none" stroke-width="0"/><path d="M968.15094,49.26416c-116.37732,373.13205 -160.69807,511.69809 -236.37732,739.01886c72.05657,-234.56601 116.37732,-373.13205 236.37732,-739.01886" id="Path 1" fill="#000000" stroke="none" stroke-width="0"/><path d="M461.88681,454.09436c139.47169,3.16982 313.69811,13.18868 929.20755,53.43393c34.75472,6.84905 -139.47169,-3.16982 -929.20755,-53.43393" id="Path 1" fill="#f9e7c0" stroke="none" stroke-width="0"/><path d="M465.50943,523.8302c134.58411,129.15009 184.37388,178.93986 265.54542,265.54542c-84.79435,-79.36032 -134.58411,-129.15009 -265.54542,-265.54542" id="Path 1" fill="#b81717" stroke="none" stroke-width="0"/><path d="M464.60379,367.15094c311.54698,215.54718 427.6979,297.39624 619.47153,436.52832c-195.39607,-133.69812 -311.54698,-215.54718 -619.47153,-436.52832" id="Path 1" fill="#9f8ee7" stroke="none" stroke-width="0"/><path d="M480.90567,268.43396c212.83009,-108.67925 291.28292,-150.45283 418.41507,-222.79245c-134.37727,66.90566 -212.83009,108.67925 -418.41507,222.79245" id="Path 1" fill="#94e98b" stroke="none" stroke-width="0"/><path d="M642.11322,51.07547c-84.67935,144.45282 -118.13218,198.28301 -178.4151,287.09436c51.22652,-90.62263 84.67935,-144.45282 178.4151,-287.09436" id="Path 1" fill="url(#color-1)" stroke="none" stroke-width="0"/></g></g></g></g></svg>